HIERARCHY
ROOT Hips
{
  OFFSET 5.72205e-005 65.662 3.42586
  CHANNELS 6 Xposition Yposition Zposition Zrotation Xrotation Yrotation
  JOINT Chest
  {
    OFFSET 0 8.7983 -4.7612
    CHANNELS 3 Zrotation Xrotation Yrotation
    JOINT Chest2
    {
      OFFSET 0 8.0291 0.4195
      CHANNELS 3 Zrotation Xrotation Yrotation
      JOINT Chest3
      {
        OFFSET 0 9.9351 -2.2114
        CHANNELS 3 Zrotation Xrotation Yrotation
        JOINT Neck
        {
          OFFSET 0 22.3885 -0.4656
          CHANNELS 3 Zrotation Xrotation Yrotation
          JOINT Head
          {
            OFFSET -0.0001 12.643 3.4389
            CHANNELS 3 Zrotation Xrotation Yrotation
            End Site
            {
              OFFSET 0.0001 17.6655 0.5274
            }
          }
        }
        JOINT LeftCollar
        {
          OFFSET 2.2603 21.606 7.4023
          CHANNELS 3 Zrotation Xrotation Yrotation
          JOINT LeftShoulder
          {
            OFFSET 13.5163 -1.1332 -5.0146
            CHANNELS 3 Zrotation Xrotation Yrotation
            JOINT LeftElbow
            {
              OFFSET -0.0995 -28.05 -0.2431
              CHANNELS 3 Zrotation Xrotation Yrotation
              JOINT LeftWrist
              {
                OFFSET 0.0679 -23.3996 -0.1402
                CHANNELS 3 Zrotation Xrotation Yrotation
                JOINT LeftFinger1
                {
                  OFFSET 0.7932 -9.069 2.5189
                  CHANNELS 3 Zrotation Xrotation Yrotation
                  JOINT LeftFinger11
                  {
                    OFFSET -0.8272 -3.3923 0.5977
                    CHANNELS 3 Zrotation Xrotation Yrotation
                    JOINT LeftFinger12
                    {
                      OFFSET -0.5649 -2.3158 0.4082
                      CHANNELS 3 Zrotation Xrotation Yrotation
                      End Site
                      {
                        OFFSET -0.4919 -1.6479 0.2673
                      }
                    }
                  }
                }
                JOINT LeftFinger2
                {
                  OFFSET 0.9159 -9.2044 0.2193
                  CHANNELS 3 Zrotation Xrotation Yrotation
                  JOINT LeftFinger21
                  {
                    OFFSET 0.0117 -4.1944 -0.0248
                    CHANNELS 3 Zrotation Xrotation Yrotation
                    JOINT LeftFinger22
                    {
                      OFFSET 0.0071 -2.3249 -0.0142
                      CHANNELS 3 Zrotation Xrotation Yrotation
                      End Site
                      {
                        OFFSET -0.1475 -2.0882 0.0028
                      }
                    }
                  }
                }
                JOINT LeftFinger3
                {
                  OFFSET 0.6113 -8.7231 -2.0637
                  CHANNELS 3 Zrotation Xrotation Yrotation
                  JOINT LeftFinger31
                  {
                    OFFSET -0.1927 -3.8059 -0.2383
                    CHANNELS 3 Zrotation Xrotation Yrotation
                    JOINT LeftFinger32
                    {
                      OFFSET -0.1091 -2.1688 -0.1362
                      CHANNELS 3 Zrotation Xrotation Yrotation
                      End Site
                      {
                        OFFSET -0.2358 -1.9176 -0.0906
                      }
                    }
                  }
                }
                JOINT LeftFinger4
                {
                  OFFSET -0.6151 -8.0947 -3.5641
                  CHANNELS 3 Zrotation Xrotation Yrotation
                  JOINT LeftFinger41
                  {
                    OFFSET -0.4882 -2.341 -0.6462
                    CHANNELS 3 Zrotation Xrotation Yrotation
                    JOINT LeftFinger42
                    {
                      OFFSET -0.3575 -1.7167 -0.4742
                      CHANNELS 3 Zrotation Xrotation Yrotation
                      End Site
                      {
                        OFFSET -0.4187 -1.5237 -0.3496
                      }
                    }
                  }
                }
                JOINT LeftFinger0
                {
                  OFFSET -1.42 -1.8761 1.4223
                  CHANNELS 3 Zrotation Xrotation Yrotation
                  JOINT LeftFinger01
                  {
                    OFFSET -1.1471 -3.4929 2.6334
                    CHANNELS 3 Zrotation Xrotation Yrotation
                    JOINT LeftFinger02
                    {
                      OFFSET -0.823 -2.3 1.6571
                      CHANNELS 3 Zrotation Xrotation Yrotation
                      End Site
                      {
                        OFFSET -0.5822 -1.6914 1.1582
                      }
                    }
                  }
                }
              }
            }
          }
        }
        JOINT RightCollar
        {
          OFFSET -2.2603 21.606 7.4023
          CHANNELS 3 Zrotation Xrotation Yrotation
          JOINT RightShoulder
          {
            OFFSET -13.5187 -1.1334 -5.0155
            CHANNELS 3 Zrotation Xrotation Yrotation
            JOINT RightElbow
            {
              OFFSET 0.0994 -28.0499 -0.2431
              CHANNELS 3 Zrotation Xrotation Yrotation
              JOINT RightWrist
              {
                OFFSET -0.0679 -23.3996 -0.1402
                CHANNELS 3 Zrotation Xrotation Yrotation
                JOINT RightFinger1
                {
                  OFFSET -0.7932 -9.0691 2.5189
                  CHANNELS 3 Zrotation Xrotation Yrotation
                  JOINT RightFinger11
                  {
                    OFFSET 0.8272 -3.3923 0.5977
                    CHANNELS 3 Zrotation Xrotation Yrotation
                    JOINT RightFinger12
                    {
                      OFFSET 0.565 -2.3158 0.4082
                      CHANNELS 3 Zrotation Xrotation Yrotation
                      End Site
                      {
                        OFFSET 0.4919 -1.6479 0.2673
                      }
                    }
                  }
                }
                JOINT RightFinger2
                {
                  OFFSET -0.916 -9.2044 0.2193
                  CHANNELS 3 Zrotation Xrotation Yrotation
                  JOINT RightFinger21
                  {
                    OFFSET -0.0117 -4.1944 -0.0248
                    CHANNELS 3 Zrotation Xrotation Yrotation
                    JOINT RightFinger22
                    {
                      OFFSET -0.0071 -2.3249 -0.0142
                      CHANNELS 3 Zrotation Xrotation Yrotation
                      End Site
                      {
                        OFFSET 0.1475 -2.0882 0.0028
                      }
                    }
                  }
                }
                JOINT RightFinger3
                {
                  OFFSET -0.6113 -8.7231 -2.0637
                  CHANNELS 3 Zrotation Xrotation Yrotation
                  JOINT RightFinger31
                  {
                    OFFSET 0.1927 -3.8059 -0.2383
                    CHANNELS 3 Zrotation Xrotation Yrotation
                    JOINT RightFinger32
                    {
                      OFFSET 0.1091 -2.1688 -0.1362
                      CHANNELS 3 Zrotation Xrotation Yrotation
                      End Site
                      {
                        OFFSET 0.2358 -1.9176 -0.0906
                      }
                    }
                  }
                }
                JOINT RightFinger4
                {
                  OFFSET 0.6151 -8.0947 -3.564
                  CHANNELS 3 Zrotation Xrotation Yrotation
                  JOINT RightFinger41
                  {
                    OFFSET 0.4882 -2.341 -0.6462
                    CHANNELS 3 Zrotation Xrotation Yrotation
                    JOINT RightFinger42
                    {
                      OFFSET 0.3574 -1.7166 -0.4742
                      CHANNELS 3 Zrotation Xrotation Yrotation
                      End Site
                      {
                        OFFSET 0.4187 -1.5237 -0.3496
                      }
                    }
                  }
                }
                JOINT RightFinger0
                {
                  OFFSET 1.4199 -1.8761 1.4221
                  CHANNELS 3 Zrotation Xrotation Yrotation
                  JOINT RightFinger01
                  {
                    OFFSET 1.1472 -3.4929 2.6336
                    CHANNELS 3 Zrotation Xrotation Yrotation
                    JOINT RightFinger02
                    {
                      OFFSET 0.8229 -2.3 1.6571
                      CHANNELS 3 Zrotation Xrotation Yrotation
                      End Site
                      {
                        OFFSET 0.5822 -1.6914 1.1582
                      }
                    }
                  }
                }
              }
            }
          }
        }
      }
    }
  }
  JOINT RightHip
  {
    OFFSET -9.412 3.9771 -0.7758
    CHANNELS 3 Zrotation Xrotation Yrotation
    JOINT RightKnee
    {
      OFFSET -0.7531 -40.938 0
      CHANNELS 3 Zrotation Xrotation Yrotation
      JOINT RightAnkle
      {
        OFFSET 0 -40.1986 0
        CHANNELS 3 Zrotation Xrotation Yrotation
        JOINT RightToe
        {
          OFFSET 0 -4.4182 9.239
          CHANNELS 3 Zrotation Xrotation Yrotation
          End Site
          {
            OFFSET 0 0 6.1981
          }
        }
      }
    }
  }
  JOINT LeftHip
  {
    OFFSET 9.4119 3.9773 -0.7758
    CHANNELS 3 Zrotation Xrotation Yrotation
    JOINT LeftKnee
    {
      OFFSET 0.7532 -40.9383 0
      CHANNELS 3 Zrotation Xrotation Yrotation
      JOINT LeftAnkle
      {
        OFFSET 0 -40.1986 0
        CHANNELS 3 Zrotation Xrotation Yrotation
        JOINT LeftToe
        {
          OFFSET 0 -4.4182 9.239
          CHANNELS 3 Zrotation Xrotation Yrotation
          End Site
          {
            OFFSET 0 0 6.1981
          }
        }
      }
    }
  }
}
MOTION
Frames:	5
Frame Time:	0.0333333
5.72205e-005 65.662 3.42586 0 0 -0 0 0 -0 0 0 -0 0 0 -0 0 0 -0 0 0 -0 0 0 -12.5014 88.1196 14.2451 10.6914 -0.00160068 -0.00239207 0.000740045 -8.4365e-005 7.00714e-005 -9.52055e-007 9.93923e-017 -1.98785e-016 -1.59028e-015 9.93923e-017 -5.96354e-016 -1.59028e-015 -9.93923e-017 -5.96354e-016 -1.59028e-015 9.93923e-017 -1.98785e-016 -1.59028e-015 -0.0128176 0.00232552 8.52707e-005 9.93923e-017 5.96354e-016 -0 9.93923e-017 -1.98785e-016 -1.59028e-015 -0.0160551 0.00299681 0.000857156 -2.48481e-016 0 3.18055e-015 9.93923e-017 -1.98785e-016 -1.59028e-015 -0.0125865 0.0031206 0.00282719 0 1.98785e-016 -0 9.93923e-017 -1.98785e-016 -1.59028e-015 9.93923e-017 -5.96354e-016 -1.59028e-015 -9.93923e-017 -5.96354e-016 -1.59028e-015 -0.865644 0.16582 7.03859 -88.0329 10.2057 -10.5567 0.0015593 -0.00248883 -0.000788628 7.87605e-005 4.10553e-005 1.24965e-005 -3.97569e-016 -7.95139e-016 3.18055e-015 -1.98785e-016 -3.97569e-016 3.18055e-015 -1.98785e-016 0 3.18055e-015 -3.97569e-016 -7.95139e-016 3.18055e-015 0.0129473 0.00231697 -8.70038e-005 9.93923e-017 -7.95139e-016 1.59028e-015 -3.97569e-016 -7.95139e-016 3.18055e-015 0.0163314 0.00303369 -0.000872333 3.97569e-016 7.95139e-016 -3.18055e-015 -3.97569e-016 -7.95139e-016 3.18055e-015 0.0145763 0.00367772 -0.00326275 9.93923e-017 -3.97569e-016 -0 -3.97569e-016 -7.95139e-016 3.18055e-015 -1.98785e-016 -3.97569e-016 3.18055e-015 -1.98785e-016 0 3.18055e-015 3.42482 1.32465 -0.0626183 0.000117508 0.717283 0.000978199 -3.4257 -2.04197 -0.0604716 6.47761e-025 0 -0 -3.42483 1.34017 0.0627307 -0.000193936 0.682302 -0.0013703 3.42574 -2.02253 0.0595886 -8.45714e-024 0 -7.40531e-025 
-0.872926 15.3095 1.37007 0.613208 25.9733 179.247 0.516521 8.26558 -0.787487 1.16773 16.5228 -1.6778 1.16774 16.5228 -1.6778 4.35941 17.3059 -0.96639 8.01364 -0.22791 0.224543 11.0025 6.99046 -12.5014 50.5605 -65.7751 2.56064 -4.35562 -35.9922 51.1388 -5.91466 -17.7977 14.6812 1.59028e-014 -1.59028e-015 3.97569e-015 6.36111e-015 -4.77083e-015 3.97569e-015 1.59028e-014 -6.36111e-015 7.95139e-016 1.59028e-014 -1.59028e-015 3.97569e-015 -0.0128147 0.0023056 7.84575e-005 8.82781e-032 -1.59028e-015 3.18055e-015 1.59028e-014 -1.59028e-015 3.97569e-015 -0.0160306 0.00299564 0.000850758 6.36111e-015 3.18055e-015 7.95139e-016 1.59028e-014 -1.59028e-015 3.97569e-015 -0.0126094 0.00313184 0.00282749 -9.54166e-015 1.59028e-015 3.18055e-015 1.59028e-014 -1.59028e-015 3.97569e-015 6.36111e-015 -4.77083e-015 3.97569e-015 1.59028e-014 -6.36111e-015 7.95139e-016 -11.8783 7.15587 7.14153 -42.452 -71.0505 0.789241 3.4597 -25.8903 -51.9088 27.9338 -13.1224 1.0042 -6.62086e-032 1.59028e-015 2.38542e-015 -6.36111e-015 3.18055e-015 -1.59028e-015 6.36111e-015 1.59028e-015 7.95139e-016 -6.62086e-032 1.59028e-015 2.38542e-015 0.0129371 0.0023201 -8.96572e-005 6.36111e-015 0 2.38542e-015 -6.62086e-032 1.59028e-015 2.38542e-015 0.0163286 0.00303263 -0.000872617 -9.54166e-015 -1.59028e-015 -2.38542e-015 -6.62086e-032 1.59028e-015 2.38542e-015 0.0146202 0.00368146 -0.00326392 -8.82781e-032 1.59028e-015 3.18055e-015 -6.62086e-032 1.59028e-015 2.38542e-015 -6.36111e-015 3.18055e-015 -1.59028e-015 6.36111e-015 1.59028e-015 7.95139e-016 -74.3975 -58.0709 -49.7006 99.3138 69.3813 -101.412 0.592635 -11.5974 -4.63829 -8.99624e-007 -8.18156e-007 -4.79731e-006 36.3135 -54.6897 12.8602 -53.9833 36.5532 56.7926 -1.84646 6.94776 4.11691 5.86121e-006 6.24416e-006 4.89495e-006 
-0.872926 15.3095 1.37007 0.613208 25.9733 179.247 0.516521 8.26558 -0.787487 1.16773 16.5228 -1.6778 1.16774 16.5228 -1.6778 4.33033 17.0571 -0.858243 8.01364 -0.227922 0.224548 11.0025 6.99046 -12.5014 50.774 -65.5462 2.4743 -4.35569 -35.9923 51.1388 -5.91466 -17.7977 14.6812 3.18055e-015 3.18055e-015 -5.56597e-015 6.36111e-015 6.36111e-015 -3.97569e-015 2.64834e-031 3.18055e-015 -4.77083e-015 3.18055e-015 3.18055e-015 -5.56597e-015 -0.0128382 0.00232184 8.97264e-005 -1.59028e-014 -4.77083e-015 7.95139e-016 3.18055e-015 3.18055e-015 -5.56597e-015 -0.0160379 0.00299557 0.000861684 -3.18055e-015 -1.43125e-014 2.46493e-014 3.18055e-015 3.18055e-015 -5.56597e-015 -0.0125731 0.00311213 0.00282275 1.98626e-031 4.77083e-015 -2.38542e-015 3.18055e-015 3.18055e-015 -5.56597e-015 6.36111e-015 6.36111e-015 -3.97569e-015 2.64834e-031 3.18055e-015 -4.77083e-015 -11.8783 7.15587 7.14153 -42.4413 -71.2106 0.588147 3.46109 -25.8448 -51.7353 27.9338 -13.1224 1.00416 6.36111e-015 -1.59028e-015 1.59028e-015 9.54166e-015 -1.59028e-015 7.95139e-016 6.36111e-015 1.59028e-015 2.38542e-015 6.36111e-015 -1.59028e-015 1.59028e-015 0.0129241 0.00231435 -7.90294e-005 9.54166e-015 3.18055e-015 5.56597e-015 6.36111e-015 -1.59028e-015 1.59028e-015 0.0163397 0.00303429 -0.000856429 -6.36111e-015 1.59028e-015 7.95139e-015 6.36111e-015 -1.59028e-015 1.59028e-015 0.0145801 0.00368594 -0.00325957 -3.18055e-015 -1.59028e-015 -1.59028e-015 6.36111e-015 -1.59028e-015 1.59028e-015 9.54166e-015 -1.59028e-015 7.95139e-016 6.36111e-015 1.59028e-015 2.38542e-015 -74.3975 -58.0709 -49.7006 99.3138 69.3813 -101.412 0.592635 -11.5974 -4.63829 -8.99624e-007 -8.18156e-007 -4.79731e-006 36.3135 -54.6897 12.8602 -53.9833 36.5532 56.7926 -1.84646 6.94776 4.11691 5.86121e-006 6.24416e-006 4.89495e-006 
-0.872926 15.3095 1.37007 0.613208 25.9733 179.247 0.516521 8.26558 -0.787487 1.16773 16.5228 -1.6778 1.16774 16.5228 -1.6778 4.30175 16.8081 -0.75028 8.01364 -0.227902 0.224545 11.0025 6.99046 -12.5014 50.9866 -65.3175 2.38648 -4.35566 -35.9922 51.1389 -5.91465 -17.7977 14.6811 6.36111e-015 -4.77083e-015 3.18055e-015 3.18055e-015 -4.77083e-015 4.77083e-015 6.36111e-015 -4.77083e-015 4.77083e-015 6.36111e-015 -4.77083e-015 3.18055e-015 -0.0128501 0.00233417 8.51699e-005 -3.08973e-031 -3.18055e-015 -5.56597e-015 6.36111e-015 -4.77083e-015 3.18055e-015 -0.0159974 0.00298397 0.000855501 -9.54166e-015 3.18055e-015 -3.18055e-015 6.36111e-015 -4.77083e-015 3.18055e-015 -0.0125809 0.00312075 0.00282635 -6.36111e-015 0 -7.95139e-016 6.36111e-015 -4.77083e-015 3.18055e-015 3.18055e-015 -4.77083e-015 4.77083e-015 6.36111e-015 -4.77083e-015 4.77083e-015 -11.8783 7.15587 7.14153 -42.4326 -71.3708 0.385044 3.46234 -25.7993 -51.5618 27.9338 -13.1224 1.00413 -8.82781e-031 -1.27222e-014 -3.97569e-015 2.286e-006 -7.8354e-006 8.90576e-006 -6.36111e-015 3.18055e-015 -1.59028e-015 -8.82781e-031 -1.27222e-014 -3.97569e-015 0.0129435 0.00230697 -8.14071e-005 -1.90833e-014 1.59028e-015 2.38542e-015 -8.82781e-031 -1.27222e-014 -3.97569e-015 0.0163054 0.00303017 -0.000871387 3.18055e-015 1.59028e-015 7.95139e-016 -8.82781e-031 -1.27222e-014 -3.97569e-015 0.0145701 0.00367581 -0.00326509 -6.36111e-015 0 7.95139e-016 -8.82781e-031 -1.27222e-014 -3.97569e-015 2.286e-006 -7.8354e-006 8.90576e-006 -6.36111e-015 3.18055e-015 -1.59028e-015 -74.3974 -58.071 -49.7005 99.3136 69.3813 -101.412 0.592624 -11.5974 -4.63829 -3.18055e-015 -1.94452e-008 -3.18055e-015 36.3135 -54.6897 12.8602 -53.9833 36.5532 56.7926 -1.84645 6.94777 4.11692 1.42905e-006 -5.77861e-007 -5.19279e-007 
-0.872926 15.3095 1.37007 0.613208 25.9733 179.247 0.516521 8.26558 -0.787488 1.16774 16.5228 -1.6778 1.16774 16.5228 -1.6778 4.27369 16.5588 -0.6425 8.01364 -0.227903 0.224544 11.0025 6.99046 -12.5014 51.1985 -65.0885 2.29723 -4.35565 -35.9921 51.1389 -5.91465 -17.7977 14.6812 6.36111e-015 1.59028e-015 -2.38542e-015 -6.36111e-015 0 -5.56597e-015 -6.36111e-015 4.77083e-015 -1.59028e-015 6.36111e-015 1.59028e-015 -2.38542e-015 -0.0128061 0.00233446 9.59476e-005 -3.18055e-015 3.18055e-015 1.59028e-015 6.36111e-015 1.59028e-015 -2.38542e-015 -0.0160054 0.00300273 0.000865121 6.36111e-015 4.77083e-015 -1.59028e-015 6.36111e-015 1.59028e-015 -2.38542e-015 -0.0126 0.00313201 0.00284027 6.36111e-015 -1.59028e-015 -2.38542e-015 6.36111e-015 1.59028e-015 -2.38542e-015 -6.36111e-015 0 -5.56597e-015 -6.36111e-015 4.77083e-015 -1.59028e-015 -11.8783 7.15586 7.14153 -42.4253 -71.5312 0.180438 3.46333 -25.7536 -51.3884 27.9338 -13.1224 1.00415 -3.18055e-015 1.59028e-015 -4.77083e-015 -9.54166e-015 3.18055e-015 -2.38542e-015 -6.36111e-015 0 -1.59028e-015 -3.18055e-015 1.59028e-015 -4.77083e-015 0.0129436 0.00230813 -8.08684e-005 6.36111e-015 3.18055e-015 1.59028e-015 -3.18055e-015 1.59028e-015 -4.77083e-015 0.0163345 0.0030253 -0.000866961 -6.36111e-015 -7.95139e-015 1.59028e-015 -3.18055e-015 1.59028e-015 -4.77083e-015 0.0145553 0.00368209 -0.00325462 -3.18055e-015 -3.18055e-015 -2.38542e-015 -3.18055e-015 1.59028e-015 -4.77083e-015 -9.54166e-015 3.18055e-015 -2.38542e-015 -6.36111e-015 0 -1.59028e-015 -74.3975 -58.0709 -49.7005 99.3137 69.3813 -101.412 0.592635 -11.5974 -4.63828 -1.43067e-006 5.34848e-006 -7.50046e-006 36.3135 -54.6897 12.8602 -53.9833 36.5532 56.7927 -1.84644 6.94774 4.1169 1.59028e-015 0 3.18055e-015 
